<svg xmlns="http://www.w3.org/2000/svg" viewBox="0 0 1500 1010" font-family="Segoe UI, Arial, sans-serif">
  <defs>
    <!-- Shadow filters -->
    <filter id="shadow" x="-4%" y="-4%" width="108%" height="112%">
      <feDropShadow dx="0" dy="2" stdDeviation="3" flood-opacity="0.15"/>
    </filter>
    <filter id="shadowLg" x="-2%" y="-4%" width="104%" height="112%">
      <feDropShadow dx="0" dy="3" stdDeviation="5" flood-opacity="0.12"/>
    </filter>

    <!-- Arrow markers -->
    <marker id="arrow" markerWidth="10" markerHeight="7" refX="9" refY="3.5" orient="auto">
      <polygon points="0 0, 10 3.5, 0 7" fill="#94a3b8"/>
    </marker>
    <marker id="arrowBlue" markerWidth="10" markerHeight="7" refX="9" refY="3.5" orient="auto">
      <polygon points="0 0, 10 3.5, 0 7" fill="#0078d4"/>
    </marker>
    <marker id="arrowGreen" markerWidth="10" markerHeight="7" refX="9" refY="3.5" orient="auto">
      <polygon points="0 0, 10 3.5, 0 7" fill="#059669"/>
    </marker>
    <marker id="arrowPurple" markerWidth="10" markerHeight="7" refX="9" refY="3.5" orient="auto">
      <polygon points="0 0, 10 3.5, 0 7" fill="#7c3aed"/>
    </marker>
    <marker id="arrowOrange" markerWidth="10" markerHeight="7" refX="9" refY="3.5" orient="auto">
      <polygon points="0 0, 10 3.5, 0 7" fill="#ea580c"/>
    </marker>
    <marker id="arrowTeal" markerWidth="10" markerHeight="7" refX="9" refY="3.5" orient="auto">
      <polygon points="0 0, 10 3.5, 0 7" fill="#0d9488"/>
    </marker>

    <!-- Gradients -->
    <linearGradient id="gradAuth" x1="0" y1="0" x2="1" y2="0">
      <stop offset="0%" stop-color="#7c3aed"/>
      <stop offset="100%" stop-color="#a78bfa"/>
    </linearGradient>
    <linearGradient id="gradAgent" x1="0" y1="0" x2="1" y2="0">
      <stop offset="0%" stop-color="#0078d4"/>
      <stop offset="100%" stop-color="#5ea0ef"/>
    </linearGradient>
    <linearGradient id="gradData" x1="0" y1="0" x2="1" y2="0">
      <stop offset="0%" stop-color="#059669"/>
      <stop offset="100%" stop-color="#34d399"/>
    </linearGradient>
    <linearGradient id="gradObserve" x1="0" y1="0" x2="1" y2="0">
      <stop offset="0%" stop-color="#ea580c"/>
      <stop offset="100%" stop-color="#fb923c"/>
    </linearGradient>
    <linearGradient id="gradVnet" x1="0" y1="0" x2="0" y2="1">
      <stop offset="0%" stop-color="#0d9488"/>
      <stop offset="100%" stop-color="#14b8a6"/>
    </linearGradient>

    <!-- Cosmos DB icon gradient -->
    <linearGradient id="cosmos-grad" x1="0" y1="0" x2="0" y2="1">
      <stop offset="0%" stop-color="#50e6ff"/>
      <stop offset="100%" stop-color="#0078d4"/>
    </linearGradient>

    <!-- AI Search icon gradient -->
    <linearGradient id="search-grad" x1="0" y1="0" x2="0" y2="1">
      <stop offset="0%" stop-color="#5ea0ef"/>
      <stop offset="100%" stop-color="#0078d4"/>
    </linearGradient>

    <!-- Entra ID gradient -->
    <linearGradient id="entra-grad" x1="0" y1="0" x2="0" y2="1">
      <stop offset="0%" stop-color="#00a4ef"/>
      <stop offset="100%" stop-color="#0078d4"/>
    </linearGradient>
  </defs>

  <!-- Background -->
  <rect width="1500" height="1000" rx="12" fill="#f8fafc"/>

  <!-- ═══════════════════════════════════════════════════════════════ -->
  <!-- TITLE                                                          -->
  <!-- ═══════════════════════════════════════════════════════════════ -->
  <text x="750" y="38" text-anchor="middle" font-size="22" font-weight="700" fill="#1e293b">TalentIQ on Microsoft Foundry</text>
  <text x="750" y="60" text-anchor="middle" font-size="13" fill="#64748b">Microsoft Foundry Agent · MCP Tools · Stateful Conversations · End-to-End Auth · Private VNet · Observability</text>

  <!-- ═══════════════════════════════════════════════════════════════ -->
  <!-- ROW 1: AUTHENTICATION &amp; IDENTITY (Entra ID)                  -->
  <!-- ═══════════════════════════════════════════════════════════════ -->
  <g filter="url(#shadowLg)">
    <rect x="60" y="80" width="1380" height="90" rx="10" fill="#fff" stroke="#a78bfa" stroke-width="1.5" opacity="0.95"/>
    <rect x="60" y="80" width="1380" height="28" rx="10" fill="url(#gradAuth)"/>
    <rect x="60" y="98" width="1380" height="10" fill="url(#gradAuth)"/>
    <text x="750" y="100" text-anchor="middle" font-size="14" font-weight="700" fill="#fff" letter-spacing="1">END-TO-END AUTHENTICATION — MICROSOFT ENTRA ID</text>
  </g>

  <!-- Users -->
  <text x="120" y="140" text-anchor="middle" font-size="28">👤</text>
  <text x="120" y="160" text-anchor="middle" font-size="10" fill="#5b21b6" font-weight="600">End Users</text>

  <!-- Arrow users to Entra -->
  <line x1="155" y1="142" x2="265" y2="142" stroke="#7c3aed" stroke-width="2" marker-end="url(#arrowPurple)"/>
  <text x="210" y="135" text-anchor="middle" font-size="9" fill="#7c3aed" font-style="italic">login</text>

  <!-- Entra ID icon box -->
  <rect x="270" y="118" width="200" height="48" rx="8" fill="#faf5ff" stroke="#a78bfa" stroke-width="1.2"/>
  <g transform="translate(280, 124)">
    <!-- Entra ID shield icon -->
    <rect width="36" height="36" rx="6" fill="#0078d4" opacity="0.12"/>
    <g transform="translate(6, 4) scale(0.85)">
      <path d="M14,2,2,6V12.5a10.21,10.21,0,0,0,5.46,9.15L14,25l6.54-3.35A10.21,10.21,0,0,0,26,12.5V6Z" fill="url(#entra-grad)" opacity="0.85"/>
      <path d="M14,8a3.5,3.5,0,1,0,3.5,3.5A3.5,3.5,0,0,0,14,8Zm0,5.5A2,2,0,1,1,16,11.5,2,2,0,0,1,14,13.5Z" fill="#fff"/>
      <path d="M10.5,17.5c0-1.93,1.57-2.5,3.5-2.5s3.5.57,3.5,2.5v1h-7Z" fill="#fff"/>
    </g>
  </g>
  <text x="325" y="140" text-anchor="start" font-size="12" font-weight="600" fill="#5b21b6">Microsoft Entra ID</text>
  <text x="325" y="155" text-anchor="start" font-size="9" fill="#7c3aed">OAuth 2.0 / OIDC / RBAC</text>

  <!-- Arrow Entra to App -->
  <line x1="475" y1="142" x2="575" y2="142" stroke="#7c3aed" stroke-width="2" marker-end="url(#arrowPurple)"/>
  <text x="525" y="135" text-anchor="middle" font-size="9" fill="#7c3aed" font-style="italic">token</text>

  <!-- React Frontend -->
  <rect x="580" y="118" width="175" height="48" rx="8" fill="#eff6ff" stroke="#93c5fd" stroke-width="1.2"/>
  <g transform="translate(590, 126)">
    <rect width="32" height="32" rx="6" fill="#61dafb" opacity="0.18"/>
    <circle cx="16" cy="16" r="3" fill="#61dafb"/>
    <ellipse cx="16" cy="16" rx="11" ry="4.5" fill="none" stroke="#61dafb" stroke-width="1.2"/>
    <ellipse cx="16" cy="16" rx="11" ry="4.5" fill="none" stroke="#61dafb" stroke-width="1.2" transform="rotate(60 16 16)"/>
    <ellipse cx="16" cy="16" rx="11" ry="4.5" fill="none" stroke="#61dafb" stroke-width="1.2" transform="rotate(120 16 16)"/>
  </g>
  <text x="635" y="140" text-anchor="start" font-size="11" font-weight="600" fill="#1e40af">React Frontend</text>
  <text x="635" y="154" text-anchor="start" font-size="9" fill="#3b82f6">SPA + MSAL.js</text>

  <!-- Arrow Frontend to FastAPI -->
  <line x1="760" y1="142" x2="860" y2="142" stroke="#0078d4" stroke-width="2" marker-end="url(#arrowBlue)"/>
  <text x="810" y="135" text-anchor="middle" font-size="9" fill="#0078d4" font-style="italic">API calls</text>

  <!-- FastAPI Backend -->
  <rect x="865" y="118" width="175" height="48" rx="8" fill="#eff6ff" stroke="#93c5fd" stroke-width="1.2"/>
  <g transform="translate(875, 125)">
    <rect width="34" height="34" rx="6" fill="#009688" opacity="0.15"/>
    <text x="17" y="22" text-anchor="middle" font-size="14" font-weight="700" fill="#009688">⚡</text>
  </g>
  <text x="920" y="140" text-anchor="start" font-size="11" font-weight="600" fill="#1e40af">FastAPI Backend</text>
  <text x="920" y="154" text-anchor="start" font-size="9" fill="#3b82f6">REST API + Auth</text>

  <!-- Managed Identity label -->
  <rect x="1130" y="118" width="175" height="48" rx="8" fill="#faf5ff" stroke="#a78bfa" stroke-width="1.2"/>
  <g transform="translate(1140, 126)">
    <rect width="32" height="32" rx="6" fill="#0078d4" opacity="0.12"/>
    <g transform="translate(6, 4) scale(0.75)">
      <path d="M14,2,2,6V12.5a10.21,10.21,0,0,0,5.46,9.15L14,25l6.54-3.35A10.21,10.21,0,0,0,26,12.5V6Z" fill="#0078d4" opacity="0.6"/>
      <text x="14" y="18" text-anchor="middle" font-size="12" fill="#fff" font-weight="700">MI</text>
    </g>
  </g>
  <text x="1185" y="140" text-anchor="start" font-size="11" font-weight="600" fill="#5b21b6">Managed Identity</text>
  <text x="1185" y="154" text-anchor="start" font-size="9" fill="#7c3aed">Service-to-Service</text>


  <!-- ═══════════════════════════════════════════════════════════════ -->
  <!-- PRIVATE VNET BOUNDARY                                          -->
  <!-- ═══════════════════════════════════════════════════════════════ -->
  <rect x="60" y="190" width="1200" height="580" rx="12" fill="none" stroke="#14b8a6" stroke-width="2.5" stroke-dasharray="10,5" opacity="0.7"/>
  <!-- VNet label -->
  <rect x="65" y="185" width="230" height="24" rx="6" fill="#f0fdfa" stroke="#14b8a6" stroke-width="1.2"/>
  <g transform="translate(72, 188)">
    <!-- VNet icon mini -->
    <circle cx="8" cy="10" r="3.5" fill="none" stroke="#14b8a6" stroke-width="1.5"/>
    <circle cx="18" cy="10" r="3.5" fill="none" stroke="#14b8a6" stroke-width="1.5"/>
    <line x1="11.5" y1="10" x2="14.5" y2="10" stroke="#14b8a6" stroke-width="1.5"/>
  </g>
  <text x="100" y="202" text-anchor="start" font-size="11" font-weight="700" fill="#0d9488">PRIVATE VIRTUAL NETWORK</text>

  <!-- Private Endpoints label -->
  <rect x="305" y="185" width="180" height="24" rx="6" fill="#ecfdf5" stroke="#86efac" stroke-width="1"/>
  <text x="395" y="202" text-anchor="middle" font-size="10" fill="#059669" font-weight="600">🔒 Private Endpoints Only</text>


  <!-- ═══════════════════════════════════════════════════════════════ -->
  <!-- ROW 2: MICROSOFT FOUNDRY AGENT LAYER                          -->
  <!-- ═══════════════════════════════════════════════════════════════ -->
  <g filter="url(#shadowLg)">
    <rect x="100" y="230" width="1120" height="210" rx="10" fill="#fff" stroke="#3b82f6" stroke-width="1.8" opacity="0.95"/>
    <rect x="100" y="230" width="1120" height="30" rx="10" fill="url(#gradAgent)"/>
    <rect x="100" y="250" width="1120" height="10" fill="url(#gradAgent)"/>
    <text x="660" y="251" text-anchor="middle" font-size="14" font-weight="700" fill="#fff" letter-spacing="1">MICROSOFT FOUNDRY AGENT — AGENT RUNTIME</text>
  </g>

  <!-- Foundry Agent Box -->
  <rect x="130" y="275" width="280" height="145" rx="10" fill="#eff6ff" stroke="#93c5fd" stroke-width="1.5"/>
  <rect x="130" y="275" width="280" height="28" rx="10" fill="#0078d4" opacity="0.9"/>
  <rect x="130" y="293" width="280" height="10" fill="#0078d4" opacity="0.9"/>
  <text x="270" y="295" text-anchor="middle" font-size="12" font-weight="700" fill="#fff">Microsoft Foundry Agent</text>

  <!-- Agent sub-components -->
  <!-- Prompt/Instructions -->
  <rect x="145" y="315" width="115" height="40" rx="6" fill="#dbeafe" stroke="#93c5fd" stroke-width="1"/>
  <text x="202" y="333" text-anchor="middle" font-size="10" font-weight="600" fill="#1e40af">System Prompt</text>
  <text x="202" y="347" text-anchor="middle" font-size="9" fill="#3b82f6">Instructions</text>

  <!-- Model (GPT-4o) -->
  <rect x="272" y="315" width="125" height="40" rx="6" fill="#dbeafe" stroke="#93c5fd" stroke-width="1"/>
  <text x="334" y="333" text-anchor="middle" font-size="10" font-weight="600" fill="#1e40af">GPT-5.4 Model</text>
  <text x="334" y="347" text-anchor="middle" font-size="9" fill="#3b82f6">Azure OpenAI</text>

  <!-- Stateful Conversation -->
  <rect x="145" y="365" width="252" height="40" rx="6" fill="#fef3c7" stroke="#fbbf24" stroke-width="1"/>
  <text x="271" y="383" text-anchor="middle" font-size="10" font-weight="600" fill="#92400e">🔄 Stateful Conversation Management</text>
  <text x="271" y="397" text-anchor="middle" font-size="9" fill="#b45309">Thread &amp; Session State → Cosmos DB</text>

  <!-- MCP Tool Server Box -->
  <rect x="440" y="275" width="300" height="145" rx="10" fill="#f0fdf4" stroke="#86efac" stroke-width="1.5"/>
  <rect x="440" y="275" width="300" height="28" rx="10" fill="#059669" opacity="0.9"/>
  <rect x="440" y="293" width="300" height="10" fill="#059669" opacity="0.9"/>
  <text x="590" y="295" text-anchor="middle" font-size="12" font-weight="700" fill="#fff">MCP Tool Server (Azure Functions)</text>

  <!-- MCP Tools -->
  <rect x="455" y="315" width="125" height="40" rx="6" fill="#dcfce7" stroke="#86efac" stroke-width="1"/>
  <text x="517" y="333" text-anchor="middle" font-size="10" font-weight="600" fill="#166534">🔍 search_candidates</text>
  <text x="517" y="347" text-anchor="middle" font-size="9" fill="#15803d">Skill + Location</text>

  <rect x="595" y="315" width="130" height="40" rx="6" fill="#dcfce7" stroke="#86efac" stroke-width="1"/>
  <text x="660" y="333" text-anchor="middle" font-size="10" font-weight="600" fill="#166534">📋 search_demands</text>
  <text x="660" y="347" text-anchor="middle" font-size="9" fill="#15803d">Role + Region</text>

  <rect x="455" y="365" width="125" height="40" rx="6" fill="#dcfce7" stroke="#86efac" stroke-width="1"/>
  <text x="517" y="383" text-anchor="middle" font-size="10" font-weight="600" fill="#166534">🎯 match_demand</text>
  <text x="517" y="397" text-anchor="middle" font-size="9" fill="#15803d">Candidate Fit</text>

  <rect x="595" y="365" width="130" height="40" rx="6" fill="#dcfce7" stroke="#86efac" stroke-width="1"/>
  <text x="660" y="383" text-anchor="middle" font-size="10" font-weight="600" fill="#166534">📊 bench_analytics</text>
  <text x="660" y="397" text-anchor="middle" font-size="9" fill="#15803d">Utilization Stats</text>

  <!-- Arrow: Agent calls MCP -->
  <line x1="415" y1="350" x2="435" y2="350" stroke="#0078d4" stroke-width="2.5" marker-end="url(#arrowBlue)"/>
  <text x="425" y="340" text-anchor="middle" font-size="9" fill="#0078d4" font-style="italic" transform="rotate(-90, 425, 340)">MCP</text>

  <!-- Agent Framework Box -->
  <rect x="770" y="275" width="220" height="145" rx="10" fill="#fefce8" stroke="#fde68a" stroke-width="1.5"/>
  <rect x="770" y="275" width="220" height="28" rx="10" fill="#d97706" opacity="0.85"/>
  <rect x="770" y="293" width="220" height="10" fill="#d97706" opacity="0.85"/>
  <text x="880" y="295" text-anchor="middle" font-size="11" font-weight="700" fill="#fff">Agent Framework</text>

  <!-- Agent Framework details -->
  <rect x="785" y="315" width="190" height="30" rx="6" fill="#fef9c3" stroke="#fde68a" stroke-width="1"/>
  <text x="880" y="335" text-anchor="middle" font-size="10" fill="#92400e">🔀 HandoffBuilder</text>

  <rect x="785" y="355" width="190" height="30" rx="6" fill="#fef9c3" stroke="#fde68a" stroke-width="1"/>
  <text x="880" y="375" text-anchor="middle" font-size="10" fill="#92400e">🧠 Orchestrator + Specialists</text>

  <rect x="785" y="395" width="190" height="18" rx="4" fill="#fefce8" stroke="#fde68a" stroke-width="0.8"/>
  <text x="880" y="408" text-anchor="middle" font-size="9" fill="#b45309">MCPStreamableHTTPTool</text>

  <!-- Conversation State Box -->
  <rect x="1010" y="275" width="190" height="145" rx="10" fill="#faf5ff" stroke="#c4b5fd" stroke-width="1.5"/>
  <rect x="1010" y="275" width="190" height="28" rx="10" fill="#7c3aed" opacity="0.85"/>
  <rect x="1010" y="293" width="190" height="10" fill="#7c3aed" opacity="0.85"/>
  <text x="1105" y="295" text-anchor="middle" font-size="11" font-weight="700" fill="#fff">Conversation State</text>

  <!-- State details -->
  <rect x="1025" y="315" width="160" height="30" rx="6" fill="#f5f3ff" stroke="#c4b5fd" stroke-width="1"/>
  <text x="1105" y="335" text-anchor="middle" font-size="10" fill="#5b21b6">📝 Thread History</text>

  <rect x="1025" y="355" width="160" height="30" rx="6" fill="#f5f3ff" stroke="#c4b5fd" stroke-width="1"/>
  <text x="1105" y="375" text-anchor="middle" font-size="10" fill="#5b21b6">🔑 Session State</text>

  <rect x="1025" y="395" width="160" height="18" rx="4" fill="#ede9fe" stroke="#c4b5fd" stroke-width="0.8"/>
  <text x="1105" y="408" text-anchor="middle" font-size="9" fill="#6d28d9">Persisted in Cosmos DB</text>

  <!-- Arrow from Agent to Conversation State -->
  <line x1="415" y1="390" x2="415" y2="390" stroke="none"/>



  <!-- Arrow from FastAPI down to Agent -->
  <line x1="950" y1="166" x2="660" y2="226" stroke="#0078d4" stroke-width="2" marker-end="url(#arrowBlue)" stroke-dasharray="5,3"/>
  <text x="820" y="200" text-anchor="start" font-size="9" fill="#0078d4" font-style="italic">proxy</text>


  <!-- ═══════════════════════════════════════════════════════════════ -->
  <!-- ROW 3: DATA SOURCES LAYER                                      -->
  <!-- ═══════════════════════════════════════════════════════════════ -->
  <g filter="url(#shadowLg)">
    <rect x="100" y="465" width="1120" height="190" rx="10" fill="#fff" stroke="#10b981" stroke-width="1.8" opacity="0.95"/>
    <rect x="100" y="465" width="1120" height="30" rx="10" fill="url(#gradData)"/>
    <rect x="100" y="485" width="1120" height="10" fill="url(#gradData)"/>
    <text x="660" y="486" text-anchor="middle" font-size="14" font-weight="700" fill="#fff" letter-spacing="1">DATA SOURCES — AZURE AI SEARCH + COSMOS DB + DATABRICKS</text>
  </g>

  <!-- Azure AI Search -->
  <rect x="130" y="510" width="260" height="125" rx="10" fill="#eff6ff" stroke="#93c5fd" stroke-width="1.5"/>
  <rect x="130" y="510" width="260" height="26" rx="10" fill="#0078d4" opacity="0.85"/>
  <rect x="130" y="526" width="260" height="10" fill="#0078d4" opacity="0.85"/>
  <text x="260" y="530" text-anchor="middle" font-size="12" font-weight="700" fill="#fff">Azure AI Search</text>

  <!-- Search indexes -->
  <rect x="140" y="548" width="115" height="35" rx="6" fill="#dbeafe" stroke="#93c5fd" stroke-width="1"/>
  <text x="197" y="566" text-anchor="middle" font-size="9" font-weight="600" fill="#1e40af">🗂️ candidates-index</text>
  <text x="197" y="578" text-anchor="middle" font-size="8" fill="#3b82f6">Vector + Keyword</text>

  <rect x="265" y="548" width="115" height="35" rx="6" fill="#dbeafe" stroke="#93c5fd" stroke-width="1"/>
  <text x="322" y="566" text-anchor="middle" font-size="9" font-weight="600" fill="#1e40af">🗂️ demands-index</text>
  <text x="322" y="578" text-anchor="middle" font-size="8" fill="#3b82f6">Vector + Keyword</text>

  <!-- Capabilities -->
  <rect x="140" y="593" width="240" height="30" rx="6" fill="#f0f9ff" stroke="#bae6fd" stroke-width="1"/>
  <text x="260" y="612" text-anchor="middle" font-size="9" fill="#0369a1">🧠 Semantic Ranking · Hybrid Search · Vectors</text>

  <!-- Azure Cosmos DB -->
  <rect x="410" y="510" width="260" height="125" rx="10" fill="#ecfdf5" stroke="#86efac" stroke-width="1.5"/>
  <rect x="410" y="510" width="260" height="26" rx="10" fill="#059669" opacity="0.85"/>
  <rect x="410" y="526" width="260" height="10" fill="#059669" opacity="0.85"/>
  <text x="540" y="530" text-anchor="middle" font-size="12" font-weight="700" fill="#fff">Azure Cosmos DB (NoSQL)</text>

  <!-- Cosmos containers -->
  <rect x="420" y="548" width="75" height="35" rx="6" fill="#dcfce7" stroke="#86efac" stroke-width="1"/>
  <text x="457" y="566" text-anchor="middle" font-size="9" font-weight="600" fill="#166534">📦 candidates</text>
  <text x="457" y="578" text-anchor="middle" font-size="8" fill="#15803d">Profiles</text>

  <rect x="505" y="548" width="75" height="35" rx="6" fill="#dcfce7" stroke="#86efac" stroke-width="1"/>
  <text x="542" y="566" text-anchor="middle" font-size="9" font-weight="600" fill="#166534">📦 demands</text>
  <text x="542" y="578" text-anchor="middle" font-size="8" fill="#15803d">Open Roles</text>

  <rect x="590" y="548" width="70" height="35" rx="6" fill="#fef3c7" stroke="#fbbf24" stroke-width="1"/>
  <text x="625" y="566" text-anchor="middle" font-size="9" font-weight="600" fill="#92400e">📦 sessions</text>
  <text x="625" y="578" text-anchor="middle" font-size="8" fill="#b45309">State</text>

  <!-- Cosmos capabilities -->
  <rect x="420" y="593" width="240" height="30" rx="6" fill="#f0fdf4" stroke="#bbf7d0" stroke-width="1"/>
  <text x="540" y="612" text-anchor="middle" font-size="9" fill="#166534">🌍 Multi-Region · Change Feed · Partition Key: /org</text>

  <!-- Databricks (Not Implemented in Demo) -->
  <rect x="690" y="510" width="180" height="125" rx="10" fill="#f1f5f9" stroke="#cbd5e1" stroke-width="1.5" stroke-dasharray="6,3" opacity="0.7"/>
  <rect x="690" y="510" width="180" height="26" rx="10" fill="#94a3b8" opacity="0.6"/>
  <rect x="690" y="526" width="180" height="10" fill="#94a3b8" opacity="0.6"/>
  <text x="780" y="530" text-anchor="middle" font-size="11" font-weight="700" fill="#fff">Databricks</text>

  <rect x="700" y="548" width="160" height="35" rx="6" fill="#f8fafc" stroke="#cbd5e1" stroke-width="1" opacity="0.7"/>
  <text x="780" y="564" text-anchor="middle" font-size="9" font-weight="600" fill="#94a3b8">📦 3 Catalogs</text>
  <text x="780" y="576" text-anchor="middle" font-size="8" fill="#94a3b8">workforce · delivery · luxoft</text>

  <rect x="700" y="593" width="160" height="30" rx="6" fill="#f8fafc" stroke="#cbd5e1" stroke-width="1" opacity="0.7"/>
  <text x="780" y="612" text-anchor="middle" font-size="9" fill="#94a3b8">ETL Data Warehouse</text>

  <!-- "Not Implemented" badge on Databricks -->
  <rect x="710" y="495" width="140" height="18" rx="9" fill="#fef2f2" stroke="#fca5a5" stroke-width="1"/>
  <text x="780" y="508" text-anchor="middle" font-size="8" font-weight="700" fill="#dc2626">⚠️ NOT IN DEMO — FUTURE</text>

  <!-- Foundry Models -->
  <rect x="890" y="510" width="300" height="125" rx="10" fill="#faf5ff" stroke="#c4b5fd" stroke-width="1.5"/>
  <rect x="890" y="510" width="300" height="26" rx="10" fill="#7c3aed" opacity="0.85"/>
  <rect x="890" y="526" width="300" height="10" fill="#7c3aed" opacity="0.85"/>
  <text x="1040" y="530" text-anchor="middle" font-size="12" font-weight="700" fill="#fff">Foundry Models</text>

  <rect x="900" y="548" width="130" height="35" rx="6" fill="#f5f3ff" stroke="#c4b5fd" stroke-width="1"/>
  <text x="965" y="566" text-anchor="middle" font-size="10" font-weight="600" fill="#5b21b6">🧠 GPT-5.4</text>
  <text x="965" y="578" text-anchor="middle" font-size="9" fill="#7c3aed">Chat Completion</text>

  <rect x="1045" y="548" width="130" height="35" rx="6" fill="#f5f3ff" stroke="#c4b5fd" stroke-width="1"/>
  <text x="1110" y="566" text-anchor="middle" font-size="10" font-weight="600" fill="#5b21b6">🔢 Embeddings</text>
  <text x="1110" y="578" text-anchor="middle" font-size="9" fill="#7c3aed">text-embedding-3</text>

  <rect x="900" y="593" width="275" height="30" rx="6" fill="#faf5ff" stroke="#ddd6fe" stroke-width="1"/>
  <text x="1040" y="612" text-anchor="middle" font-size="9" fill="#6d28d9">Content Safety · Rate Limiting · Managed Identity Auth</text>


  <!-- ═══════════════════════════════════════════════════════════════ -->
  <!-- DATA FLOW ARROWS (Agent → Data)                                -->
  <!-- ═══════════════════════════════════════════════════════════════ -->
  <!-- MCP → AI Search -->
  <line x1="520" y1="420" x2="260" y2="505" stroke="#0078d4" stroke-width="2" marker-end="url(#arrowBlue)"/>
  <text x="360" y="455" text-anchor="middle" font-size="9" fill="#0078d4" font-style="italic">hybrid search</text>

  <!-- MCP → Cosmos DB -->
  <line x1="590" y1="420" x2="540" y2="505" stroke="#059669" stroke-width="2" marker-end="url(#arrowGreen)"/>
  <text x="580" y="460" text-anchor="middle" font-size="9" fill="#059669" font-style="italic">CRUD queries</text>

  <!-- Conversation State → Cosmos sessions -->
  <line x1="1105" y1="420" x2="625" y2="505" stroke="#7c3aed" stroke-width="2" marker-end="url(#arrowPurple)" stroke-dasharray="5,3"/>
  <text x="880" y="455" text-anchor="middle" font-size="9" fill="#7c3aed" font-style="italic">persist state</text>

  <!-- Databricks (future, dashed) -->
  <line x1="650" y1="420" x2="780" y2="505" stroke="#94a3b8" stroke-width="1.5" stroke-dasharray="5,4" marker-end="url(#arrow)" opacity="0.5"/>
  <text x="730" y="460" text-anchor="middle" font-size="8" fill="#94a3b8" font-style="italic">future ETL</text>




  <!-- ═══════════════════════════════════════════════════════════════ -->
  <!-- OBSERVABILITY PANEL (Right side)                               -->
  <!-- ═══════════════════════════════════════════════════════════════ -->
  <g filter="url(#shadowLg)">
    <rect x="1280" y="190" width="190" height="580" rx="10" fill="#fff" stroke="#fb923c" stroke-width="1.8" opacity="0.95"/>
    <rect x="1280" y="190" width="190" height="30" rx="10" fill="url(#gradObserve)"/>
    <rect x="1280" y="210" width="190" height="10" fill="url(#gradObserve)"/>
    <text x="1375" y="211" text-anchor="middle" font-size="12" font-weight="700" fill="#fff" letter-spacing="1">OBSERVABILITY</text>
  </g>

  <!-- Azure Monitor -->
  <rect x="1295" y="240" width="160" height="65" rx="8" fill="#fff7ed" stroke="#fdba74" stroke-width="1.2"/>
  <g transform="translate(1305, 248)">
    <rect width="30" height="30" rx="6" fill="#ea580c" opacity="0.15"/>
    <text x="15" y="22" text-anchor="middle" font-size="16">📊</text>
  </g>
  <text x="1350" y="265" text-anchor="start" font-size="11" font-weight="600" fill="#9a3412">Azure Monitor</text>
  <text x="1350" y="280" text-anchor="start" font-size="9" fill="#c2410c">Metrics &amp; Alerts</text>
  <text x="1350" y="293" text-anchor="start" font-size="9" fill="#c2410c">Resource Health</text>

  <!-- Application Insights -->
  <rect x="1295" y="318" width="160" height="65" rx="8" fill="#fff7ed" stroke="#fdba74" stroke-width="1.2"/>
  <g transform="translate(1305, 326)">
    <rect width="30" height="30" rx="6" fill="#ea580c" opacity="0.15"/>
    <text x="15" y="22" text-anchor="middle" font-size="16">🔎</text>
  </g>
  <text x="1350" y="343" text-anchor="start" font-size="11" font-weight="600" fill="#9a3412">App Insights</text>
  <text x="1350" y="358" text-anchor="start" font-size="9" fill="#c2410c">Distributed Tracing</text>
  <text x="1350" y="371" text-anchor="start" font-size="9" fill="#c2410c">Request Telemetry</text>

  <!-- Log Analytics -->
  <rect x="1295" y="396" width="160" height="65" rx="8" fill="#fff7ed" stroke="#fdba74" stroke-width="1.2"/>
  <g transform="translate(1305, 404)">
    <rect width="30" height="30" rx="6" fill="#ea580c" opacity="0.15"/>
    <text x="15" y="22" text-anchor="middle" font-size="16">📋</text>
  </g>
  <text x="1350" y="421" text-anchor="start" font-size="11" font-weight="600" fill="#9a3412">Log Analytics</text>
  <text x="1350" y="436" text-anchor="start" font-size="9" fill="#c2410c">KQL Queries</text>
  <text x="1350" y="449" text-anchor="start" font-size="9" fill="#c2410c">Agent Trace Logs</text>

  <!-- Diagnostics -->
  <rect x="1295" y="474" width="160" height="65" rx="8" fill="#fff7ed" stroke="#fdba74" stroke-width="1.2"/>
  <g transform="translate(1305, 482)">
    <rect width="30" height="30" rx="6" fill="#ea580c" opacity="0.15"/>
    <text x="15" y="22" text-anchor="middle" font-size="16">⚙️</text>
  </g>
  <text x="1350" y="499" text-anchor="start" font-size="11" font-weight="600" fill="#9a3412">Diagnostics</text>
  <text x="1350" y="514" text-anchor="start" font-size="9" fill="#c2410c">Cosmos DB Metrics</text>
  <text x="1350" y="527" text-anchor="start" font-size="9" fill="#c2410c">Search Analytics</text>

  <!-- Azure Workbooks -->
  <rect x="1295" y="552" width="160" height="65" rx="8" fill="#fff7ed" stroke="#fdba74" stroke-width="1.2"/>
  <g transform="translate(1305, 560)">
    <rect width="30" height="30" rx="6" fill="#ea580c" opacity="0.15"/>
    <text x="15" y="22" text-anchor="middle" font-size="16">📈</text>
  </g>
  <text x="1350" y="577" text-anchor="start" font-size="11" font-weight="600" fill="#9a3412">Workbooks</text>
  <text x="1350" y="592" text-anchor="start" font-size="9" fill="#c2410c">Custom Dashboards</text>
  <text x="1350" y="605" text-anchor="start" font-size="9" fill="#c2410c">Agent Performance</text>

  <!-- Agent Evaluation -->
  <rect x="1295" y="630" width="160" height="65" rx="8" fill="#fff7ed" stroke="#fdba74" stroke-width="1.2"/>
  <g transform="translate(1305, 638)">
    <rect width="30" height="30" rx="6" fill="#ea580c" opacity="0.15"/>
    <text x="15" y="22" text-anchor="middle" font-size="16">🧪</text>
  </g>
  <text x="1350" y="655" text-anchor="start" font-size="11" font-weight="600" fill="#9a3412">Agent Eval</text>
  <text x="1350" y="670" text-anchor="start" font-size="9" fill="#c2410c">Foundry Tracing</text>
  <text x="1350" y="683" text-anchor="start" font-size="9" fill="#c2410c">Batch Evaluation</text>

  <!-- Telemetry arrows from services to Observability -->
  <line x1="1220" y1="350" x2="1275" y2="350" stroke="#ea580c" stroke-width="1.5" stroke-dasharray="4,3" marker-end="url(#arrowOrange)"/>
  <line x1="1220" y1="550" x2="1275" y2="550" stroke="#ea580c" stroke-width="1.5" stroke-dasharray="4,3" marker-end="url(#arrowOrange)"/>
  <text x="1248" y="340" text-anchor="middle" font-size="8" fill="#ea580c">traces</text>
  <text x="1248" y="540" text-anchor="middle" font-size="8" fill="#ea580c">metrics</text>


  <!-- ═══════════════════════════════════════════════════════════════ -->
  <!-- ROW 4: NETWORK SECURITY LAYER                                  -->
  <!-- ═══════════════════════════════════════════════════════════════ -->
  <g filter="url(#shadowLg)">
    <rect x="100" y="690" width="1120" height="70" rx="10" fill="#fff" stroke="#14b8a6" stroke-width="1.5" opacity="0.95"/>
    <rect x="100" y="690" width="1120" height="26" rx="10" fill="url(#gradVnet)"/>
    <rect x="100" y="706" width="1120" height="10" fill="url(#gradVnet)"/>
    <text x="660" y="708" text-anchor="middle" font-size="12" font-weight="700" fill="#fff" letter-spacing="1">NETWORK SECURITY</text>
  </g>

  <!-- NSG -->
  <rect x="130" y="725" width="150" height="28" rx="6" fill="#f0fdfa" stroke="#5eead4" stroke-width="1"/>
  <text x="205" y="743" text-anchor="middle" font-size="10" font-weight="600" fill="#0d9488">🛡️ NSG Rules</text>

  <!-- Private DNS -->
  <rect x="300" y="725" width="160" height="28" rx="6" fill="#f0fdfa" stroke="#5eead4" stroke-width="1"/>
  <text x="380" y="743" text-anchor="middle" font-size="10" font-weight="600" fill="#0d9488">🌐 Private DNS Zones</text>

  <!-- Service Endpoints -->
  <rect x="480" y="725" width="170" height="28" rx="6" fill="#f0fdfa" stroke="#5eead4" stroke-width="1"/>
  <text x="565" y="743" text-anchor="middle" font-size="10" font-weight="600" fill="#0d9488">🔗 Private Endpoints</text>

  <!-- Firewall -->
  <rect x="670" y="725" width="150" height="28" rx="6" fill="#f0fdfa" stroke="#5eead4" stroke-width="1"/>
  <text x="745" y="743" text-anchor="middle" font-size="10" font-weight="600" fill="#0d9488">🔥 Azure Firewall</text>

  <!-- DDoS -->
  <rect x="840" y="725" width="170" height="28" rx="6" fill="#f0fdfa" stroke="#5eead4" stroke-width="1"/>
  <text x="925" y="743" text-anchor="middle" font-size="10" font-weight="600" fill="#0d9488">🛡️ DDoS Protection</text>

  <!-- WAF -->
  <rect x="1030" y="725" width="170" height="28" rx="6" fill="#f0fdfa" stroke="#5eead4" stroke-width="1"/>
  <text x="1115" y="743" text-anchor="middle" font-size="10" font-weight="600" fill="#0d9488">🔒 WAF Policy</text>


  <!-- ═══════════════════════════════════════════════════════════════ -->
  <!-- LEGEND                                                         -->
  <!-- ═══════════════════════════════════════════════════════════════ -->
  <g filter="url(#shadow)">
    <rect x="60" y="800" width="1410" height="80" rx="10" fill="#fff" stroke="#e2e8f0" stroke-width="1"/>
  </g>

  <text x="80" y="825" font-size="13" font-weight="700" fill="#1e293b">Architecture Legend</text>

  <!-- Legend items -->
  <rect x="80" y="840" width="16" height="16" rx="3" fill="#7c3aed" opacity="0.85"/>
  <text x="102" y="853" font-size="10" fill="#475569">Entra ID (Auth)</text>

  <rect x="220" y="840" width="16" height="16" rx="3" fill="#0078d4" opacity="0.85"/>
  <text x="242" y="853" font-size="10" fill="#475569">Foundry Agent / API</text>

  <rect x="390" y="840" width="16" height="16" rx="3" fill="#059669" opacity="0.85"/>
  <text x="412" y="853" font-size="10" fill="#475569">MCP Tools / Data</text>

  <rect x="540" y="840" width="16" height="16" rx="3" fill="#d97706" opacity="0.85"/>
  <text x="562" y="853" font-size="10" fill="#475569">Agent Framework</text>

  <rect x="690" y="840" width="16" height="16" rx="3" fill="#ea580c" opacity="0.85"/>
  <text x="712" y="853" font-size="10" fill="#475569">Observability</text>

  <rect x="830" y="840" width="16" height="16" rx="3" fill="#14b8a6" opacity="0.85"/>
  <text x="852" y="853" font-size="10" fill="#475569">Private VNet</text>

  <line x1="960" y1="848" x2="1010" y2="848" stroke="#0078d4" stroke-width="2"/>
  <text x="1020" y="853" font-size="10" fill="#475569">Data Flow</text>

  <line x1="1100" y1="848" x2="1150" y2="848" stroke="#94a3b8" stroke-width="1.5" stroke-dasharray="5,4"/>
  <text x="1160" y="853" font-size="10" fill="#475569">Future / Not Impl.</text>

  <!-- Private Endpoint icon -->
  <rect x="1290" y="840" width="16" height="16" rx="3" fill="none" stroke="#14b8a6" stroke-width="1.5" stroke-dasharray="3,2"/>
  <text x="1312" y="853" font-size="10" fill="#475569">VNet Boundary</text>

  <!-- ═══════════════════════════════════════════════════════════════ -->
  <!-- FLOW NUMBERS                                                   -->
  <!-- ═══════════════════════════════════════════════════════════════ -->
  <!-- Step 1 -->
  <circle cx="210" cy="135" r="10" fill="#7c3aed"/>
  <text x="210" y="139" text-anchor="middle" font-size="10" font-weight="700" fill="#fff">1</text>

  <!-- Step 2 -->
  <circle cx="525" cy="135" r="10" fill="#7c3aed"/>
  <text x="525" y="139" text-anchor="middle" font-size="10" font-weight="700" fill="#fff">2</text>

  <!-- Step 3 -->
  <circle cx="660" cy="200" r="10" fill="#0078d4"/>
  <text x="660" y="204" text-anchor="middle" font-size="10" font-weight="700" fill="#fff">3</text>

  <!-- Step 4 -->
  <circle cx="425" cy="365" r="10" fill="#059669"/>
  <text x="425" y="369" text-anchor="middle" font-size="10" font-weight="700" fill="#fff">4</text>

  <!-- Step 5 -->
  <circle cx="430" cy="470" r="10" fill="#059669"/>
  <text x="430" y="474" text-anchor="middle" font-size="10" font-weight="700" fill="#fff">5</text>

  <!-- Step 6 -->
  <circle cx="1245" cy="345" r="10" fill="#ea580c"/>
  <text x="1245" y="349" text-anchor="middle" font-size="10" font-weight="700" fill="#fff">6</text>

  <!-- Flow description -->
  <text x="80" y="955" font-size="11" font-weight="600" fill="#1e293b">Request Flow:</text>
  <text x="80" y="975" font-size="10" fill="#475569">❶ User authenticates via Entra ID (OAuth 2.0/OIDC)  →  ❷ Token validated at Frontend/API  →  ❸ Request routed to Foundry Agent  →  ❹ Agent invokes MCP Tools  →  ❺ Tools query Azure AI Search &amp; Cosmos DB  →  ❻ Telemetry emitted to Azure Monitor</text>

</svg>