<svg xmlns="http://www.w3.org/2000/svg" viewBox="0 0 1500 1040" font-family="Segoe UI, Arial, sans-serif">
  <defs>
    <!-- Shadow filters -->
    <filter id="shadow" x="-4%" y="-4%" width="108%" height="112%">
      <feDropShadow dx="0" dy="2" stdDeviation="3" flood-opacity="0.15"/>
    </filter>
    <filter id="shadowLg" x="-2%" y="-4%" width="104%" height="112%">
      <feDropShadow dx="0" dy="3" stdDeviation="5" flood-opacity="0.12"/>
    </filter>

    <!-- Arrow markers -->
    <marker id="arrow" markerWidth="10" markerHeight="7" refX="9" refY="3.5" orient="auto">
      <polygon points="0 0, 10 3.5, 0 7" fill="#94a3b8"/>
    </marker>
    <marker id="arrowBlue" markerWidth="10" markerHeight="7" refX="9" refY="3.5" orient="auto">
      <polygon points="0 0, 10 3.5, 0 7" fill="#0078d4"/>
    </marker>
    <marker id="arrowGreen" markerWidth="10" markerHeight="7" refX="9" refY="3.5" orient="auto">
      <polygon points="0 0, 10 3.5, 0 7" fill="#059669"/>
    </marker>

    <!-- Layer gradients -->
    <linearGradient id="gradPipeline" x1="0" y1="0" x2="1" y2="0">
      <stop offset="0%" stop-color="#4f46e5"/>
      <stop offset="100%" stop-color="#6366f1"/>
    </linearGradient>
    <linearGradient id="gradDev" x1="0" y1="0" x2="0" y2="1">
      <stop offset="0%" stop-color="#059669"/>
      <stop offset="100%" stop-color="#047857"/>
    </linearGradient>
    <linearGradient id="gradStage" x1="0" y1="0" x2="0" y2="1">
      <stop offset="0%" stop-color="#d97706"/>
      <stop offset="100%" stop-color="#b45309"/>
    </linearGradient>
    <linearGradient id="gradProd" x1="0" y1="0" x2="0" y2="1">
      <stop offset="0%" stop-color="#dc2626"/>
      <stop offset="100%" stop-color="#b91c1c"/>
    </linearGradient>
    <linearGradient id="gradData" x1="0" y1="0" x2="0" y2="1">
      <stop offset="0%" stop-color="#0ea5e9"/>
      <stop offset="100%" stop-color="#0284c7"/>
    </linearGradient>
    <linearGradient id="gradIngress" x1="0" y1="0" x2="0" y2="1">
      <stop offset="0%" stop-color="#7c3aed"/>
      <stop offset="100%" stop-color="#6d28d9"/>
    </linearGradient>

    <!-- Icon gradients - Machine Learning -->
    <linearGradient id="ml-grad" x1="1.1" y1="169" x2="11.12" y2="169" gradientTransform="translate(0 -160)" gradientUnits="userSpaceOnUse">
      <stop offset="0" stop-color="#50c7e8"/><stop offset="0.25" stop-color="#4cc3e4"/><stop offset="0.51" stop-color="#41b6da"/><stop offset="0.77" stop-color="#2fa2c8"/><stop offset="1" stop-color="#1989b2"/>
    </linearGradient>
    <linearGradient id="ml2-grad" x1="1.1" y1="169" x2="11.12" y2="169" gradientTransform="translate(0 -160)" gradientUnits="userSpaceOnUse">
      <stop offset="0" stop-color="#50c7e8"/><stop offset="0.25" stop-color="#4cc3e4"/><stop offset="0.51" stop-color="#41b6da"/><stop offset="0.77" stop-color="#2fa2c8"/><stop offset="1" stop-color="#1989b2"/>
    </linearGradient>
    <linearGradient id="ml3-grad" x1="1.1" y1="169" x2="11.12" y2="169" gradientTransform="translate(0 -160)" gradientUnits="userSpaceOnUse">
      <stop offset="0" stop-color="#50c7e8"/><stop offset="0.25" stop-color="#4cc3e4"/><stop offset="0.51" stop-color="#41b6da"/><stop offset="0.77" stop-color="#2fa2c8"/><stop offset="1" stop-color="#1989b2"/>
    </linearGradient>

    <!-- Icon gradients - Container Registry -->
    <linearGradient id="acr-grad1" x1="8.637" y1="-1.991" x2="8.637" y2="16.739" gradientUnits="userSpaceOnUse">
      <stop offset="0" stop-color="#5ea0ef"/><stop offset="1" stop-color="#0078d4"/>
    </linearGradient>
    <linearGradient id="acr-grad2" x1="12.96" y1="8.561" x2="12.96" y2="6.141" gradientTransform="matrix(1, 0, 0, -1, 0, 20)" gradientUnits="userSpaceOnUse">
      <stop offset="0" stop-color="#333132"/><stop offset="1" stop-color="#5b5a5c"/>
    </linearGradient>

    <!-- Icon gradients - Virtual Machine -->
    <linearGradient id="vm-grad1" x1="8.88" y1="12.21" x2="8.88" y2="0.21" gradientUnits="userSpaceOnUse">
      <stop offset="0" stop-color="#0078d4"/><stop offset="0.82" stop-color="#5ea0ef"/>
    </linearGradient>
    <linearGradient id="vm-grad2" x1="8.88" y1="16.84" x2="8.88" y2="12.21" gradientUnits="userSpaceOnUse">
      <stop offset="0.15" stop-color="#ccc"/><stop offset="1" stop-color="#707070"/>
    </linearGradient>
    <linearGradient id="vm2-grad1" x1="8.88" y1="12.21" x2="8.88" y2="0.21" gradientUnits="userSpaceOnUse">
      <stop offset="0" stop-color="#0078d4"/><stop offset="0.82" stop-color="#5ea0ef"/>
    </linearGradient>
    <linearGradient id="vm2-grad2" x1="8.88" y1="16.84" x2="8.88" y2="12.21" gradientUnits="userSpaceOnUse">
      <stop offset="0.15" stop-color="#ccc"/><stop offset="1" stop-color="#707070"/>
    </linearGradient>
    <linearGradient id="vm3-grad1" x1="8.88" y1="12.21" x2="8.88" y2="0.21" gradientUnits="userSpaceOnUse">
      <stop offset="0" stop-color="#0078d4"/><stop offset="0.82" stop-color="#5ea0ef"/>
    </linearGradient>
    <linearGradient id="vm3-grad2" x1="8.88" y1="16.84" x2="8.88" y2="12.21" gradientUnits="userSpaceOnUse">
      <stop offset="0.15" stop-color="#ccc"/><stop offset="1" stop-color="#707070"/>
    </linearGradient>
    <linearGradient id="runner-grad1" x1="8.88" y1="12.21" x2="8.88" y2="0.21" gradientUnits="userSpaceOnUse">
      <stop offset="0" stop-color="#0078d4"/><stop offset="0.82" stop-color="#5ea0ef"/>
    </linearGradient>
    <linearGradient id="runner-grad2" x1="8.88" y1="16.84" x2="8.88" y2="12.21" gradientUnits="userSpaceOnUse">
      <stop offset="0.15" stop-color="#ccc"/><stop offset="1" stop-color="#707070"/>
    </linearGradient>

    <!-- Icon gradients - Storage -->
    <linearGradient id="stor-grad" x1="9" y1="15.83" x2="9" y2="5.79" gradientUnits="userSpaceOnUse">
      <stop offset="0" stop-color="#b3b3b3"/><stop offset="0.26" stop-color="#c1c1c1"/><stop offset="1" stop-color="#e6e6e6"/>
    </linearGradient>
    <linearGradient id="stor2-grad" x1="9" y1="15.83" x2="9" y2="5.79" gradientUnits="userSpaceOnUse">
      <stop offset="0" stop-color="#b3b3b3"/><stop offset="0.26" stop-color="#c1c1c1"/><stop offset="1" stop-color="#e6e6e6"/>
    </linearGradient>
    <linearGradient id="stor3-grad" x1="9" y1="15.83" x2="9" y2="5.79" gradientUnits="userSpaceOnUse">
      <stop offset="0" stop-color="#b3b3b3"/><stop offset="0.26" stop-color="#c1c1c1"/><stop offset="1" stop-color="#e6e6e6"/>
    </linearGradient>
    <linearGradient id="storC-grad" x1="9" y1="15.83" x2="9" y2="5.79" gradientUnits="userSpaceOnUse">
      <stop offset="0" stop-color="#b3b3b3"/><stop offset="0.26" stop-color="#c1c1c1"/><stop offset="1" stop-color="#e6e6e6"/>
    </linearGradient>

    <!-- Icon gradients - VNet -->
    <linearGradient id="vn-grad1" x1="9.88" y1="8.59" x2="11.52" y2="10.23" gradientTransform="translate(2.03 -0.4) rotate(-0.08)" gradientUnits="userSpaceOnUse">
      <stop offset="0" stop-color="#86d633"/><stop offset="1" stop-color="#5e9624"/>
    </linearGradient>
    <linearGradient id="vn-grad2" x1="6.18" y1="8.59" x2="7.81" y2="10.23" gradientUnits="userSpaceOnUse">
      <stop offset="0" stop-color="#86d633"/><stop offset="1" stop-color="#5e9624"/>
    </linearGradient>
    <linearGradient id="vn-grad3" x1="2.48" y1="8.59" x2="4.11" y2="10.23" gradientUnits="userSpaceOnUse">
      <stop offset="0" stop-color="#86d633"/><stop offset="1" stop-color="#5e9624"/>
    </linearGradient>

    <!-- Icon gradients - Front Door -->
    <linearGradient id="fd-grad" x1="9" y1="13.83" x2="9" y2="1.07" gradientUnits="userSpaceOnUse">
      <stop offset="0" stop-color="#0078d4"/><stop offset="0.82" stop-color="#5ea0ef"/>
    </linearGradient>

    <!-- Icon gradients - Azure DevOps -->
    <linearGradient id="ado-grad" x1="9" y1="16.97" x2="9" y2="1.03" gradientUnits="userSpaceOnUse">
      <stop offset="0" stop-color="#0078d4"/><stop offset="0.16" stop-color="#1380da"/><stop offset="0.53" stop-color="#3c91e5"/><stop offset="0.82" stop-color="#559cec"/><stop offset="1" stop-color="#5ea0ef"/>
    </linearGradient>

    <!-- Icon gradients - Subscriptions -->
    <radialGradient id="sub-grad" cx="-36.63" cy="17.12" r="11.18" gradientTransform="translate(41.88 -7.4) scale(0.94 0.94)" gradientUnits="userSpaceOnUse">
      <stop offset="0.27" stop-color="#ffd70f"/><stop offset="0.49" stop-color="#ffcb12"/><stop offset="0.88" stop-color="#feac19"/><stop offset="1" stop-color="#fea11b"/>
    </radialGradient>
    <radialGradient id="sub2-grad" cx="-36.63" cy="17.12" r="11.18" gradientTransform="translate(41.88 -7.4) scale(0.94 0.94)" gradientUnits="userSpaceOnUse">
      <stop offset="0.27" stop-color="#ffd70f"/><stop offset="0.49" stop-color="#ffcb12"/><stop offset="0.88" stop-color="#feac19"/><stop offset="1" stop-color="#fea11b"/>
    </radialGradient>
    <radialGradient id="sub3-grad" cx="-36.63" cy="17.12" r="11.18" gradientTransform="translate(41.88 -7.4) scale(0.94 0.94)" gradientUnits="userSpaceOnUse">
      <stop offset="0.27" stop-color="#ffd70f"/><stop offset="0.49" stop-color="#ffcb12"/><stop offset="0.88" stop-color="#feac19"/><stop offset="1" stop-color="#fea11b"/>
    </radialGradient>

    <!-- DNS icon gradient -->
    <radialGradient id="dns-grad" cx="-6811.4" cy="6729.69" r="17" gradientTransform="matrix(0.5, 0, 0, -0.5, 3414.91, 3374.05)" gradientUnits="userSpaceOnUse">
      <stop offset="0.18" stop-color="#5ea0ef"/><stop offset="1" stop-color="#0078d4"/>
    </radialGradient>

    <!-- Private Endpoints icon gradients -->
    <linearGradient id="pe-grad1" x1="9.084" y1="790.967" x2="9.084" y2="787.492" gradientTransform="matrix(1, 0, 0, -1, 0, 791.516)" gradientUnits="userSpaceOnUse">
      <stop offset="0" stop-color="#50e6ff"/><stop offset="1" stop-color="#32bedd"/>
    </linearGradient>
    <linearGradient id="pe-grad2" x1="9.065" y1="13.843" x2="9.065" y2="10.368" gradientUnits="userSpaceOnUse">
      <stop offset="0" stop-color="#5e9624"/><stop offset="0.183" stop-color="#629c25"/><stop offset="0.435" stop-color="#6dae2a"/><stop offset="0.726" stop-color="#7fcb30"/><stop offset="0.822" stop-color="#86d633"/>
    </linearGradient>
  </defs>

  <!-- Background -->
  <rect width="1500" height="1040" rx="12" fill="#f8fafc"/>

  <!-- Title -->
  <text x="750" y="38" text-anchor="middle" font-size="20" font-weight="700" fill="#1e293b">Azure Machine Learning — Managed Endpoints with Blue/Green Deployments</text>
  <text x="750" y="58" text-anchor="middle" font-size="12" fill="#64748b">Multi-Environment (Dev / Stage / Prod) with Private Networking, GPU Compute &amp; CI/CD</text>

  <!-- ═══════════════════════════════════════════════════════════════ -->
  <!-- ROW 1: PUBLIC INGRESS + DNS ROUTING -->
  <!-- ═══════════════════════════════════════════════════════════════ -->
  <g filter="url(#shadowLg)">
    <rect x="60" y="80" width="1380" height="80" rx="10" fill="#fff" stroke="#8b5cf6" stroke-width="1.5" opacity="0.95"/>
    <rect x="60" y="80" width="1380" height="28" rx="10" fill="url(#gradIngress)"/>
    <rect x="60" y="98" width="1380" height="10" fill="url(#gradIngress)"/>
    <text x="750" y="99" text-anchor="middle" font-size="14" font-weight="700" fill="#fff" letter-spacing="1">PUBLIC INGRESS &amp; DNS ROUTING</text>
  </g>

  <!-- End Users -->
  <text x="120" y="138" text-anchor="middle" font-size="24">👤</text>
  <text x="120" y="153" text-anchor="middle" font-size="10" fill="#5b21b6" font-weight="600">End Users</text>

  <!-- Arrow from users to DNS -->
  <line x1="155" y1="140" x2="235" y2="140" stroke="#94a3b8" stroke-width="2" marker-end="url(#arrow)"/>
  <text x="195" y="133" text-anchor="middle" font-size="10" fill="#64748b" font-style="italic">HTTPS</text>

  <!-- DNS Zone icon -->
  <g transform="translate(245, 123) scale(2)">
    <path d="M14.21,15.72A8.5,8.5,0,0,1,3.79,2.28l.09-.06a8.5,8.5,0,0,1,10.33,13.5" fill="url(#dns-grad)"/>
    <path d="M3.69,7a7.92,7.92,0,0,1,1.16-.08,2.44,2.44,0,0,1,1.71.52A2,2,0,0,1,7.15,8.9a2.21,2.21,0,0,1-.61,1.64,2.6,2.6,0,0,1-1.86.61,9.17,9.17,0,0,1-1-.05Zm.55,3.73a4,4,0,0,0,.55,0A1.62,1.62,0,0,0,6.58,8.92,1.5,1.5,0,0,0,4.87,7.3a3.17,3.17,0,0,0-.63,0Z" fill="#fff"/>
    <path d="M7.86,11.11V6.9h.59L9.8,9a12.18,12.18,0,0,1,.76,1.37h0c-.05-.56-.06-1.07-.06-1.73V6.9H11v4.21h-.55L9.13,9c-.29-.47-.57-1-.79-1.4h0c0,.53,0,1,0,1.74v1.8Z" fill="#fff"/>
    <path d="M11.89,10.45a2,2,0,0,0,1,.27c.56,0,.88-.29.88-.72s-.22-.62-.79-.83-1.12-.6-1.12-1.2a1.22,1.22,0,0,1,1.37-1.14,2,2,0,0,1,.93.2L14,7.48a1.63,1.63,0,0,0-.8-.2c-.58,0-.8.34-.8.63s.26.59.84.81,1.08.62,1.08,1.24-.48,1.21-1.48,1.21a2.16,2.16,0,0,1-1.07-.27Z" fill="#fff"/>
  </g>
  <text x="285" y="167" text-anchor="middle" font-size="10" fill="#5b21b6" font-weight="600">Azure DNS</text>

  <!-- Front Door icon -->
  <g transform="translate(375, 123) scale(2)">
    <path d="M18,9.83A4,4,0,0,0,14.49,6,5.1,5.1,0,0,0,9.24,1.07a5.23,5.23,0,0,0-5,3.41A4.83,4.83,0,0,0,0,9.12a4.9,4.9,0,0,0,5.07,4.71l.44,0h8.21a.78.78,0,0,0,.22,0A4.09,4.09,0,0,0,18,9.83Z" fill="url(#fd-grad)"/>
    <path d="M6.63,6.82h5.06v7H6.63Z" fill="#f2f2f2"/>
    <path d="M12.61,6.37l-3.49-2a.25.25,0,0,0-.31.15s0,.06,0,.08V16.68a.25.25,0,0,0,.24.25h.08l3.49-2.06a.25.25,0,0,0,.17-.23v-8A.26.26,0,0,0,12.61,6.37Z" fill="#50e6ff"/>
  </g>
  <text x="415" y="167" text-anchor="middle" font-size="10" fill="#5b21b6" font-weight="600">Front Door</text>

  <!-- Arrows from DNS to Front Door -->
  <line x1="315" y1="140" x2="370" y2="140" stroke="#94a3b8" stroke-width="2" marker-end="url(#arrow)"/>

  <!-- Arrows from Front Door to each env -->
  <line x1="450" y1="140" x2="570" y2="140" stroke="#059669" stroke-width="1.5" stroke-dasharray="5,4" marker-end="url(#arrowGreen)"/>
  <line x1="450" y1="140" x2="900" y2="140" stroke="#d97706" stroke-width="1.5" stroke-dasharray="5,4"/>
  <line x1="450" y1="140" x2="1220" y2="140" stroke="#dc2626" stroke-width="1.5" stroke-dasharray="5,4"/>
  <text x="530" y="133" text-anchor="middle" font-size="10" fill="#059669" font-style="italic">dev</text>
  <text x="700" y="133" text-anchor="middle" font-size="10" fill="#d97706" font-style="italic">stage</text>
  <text x="1000" y="133" text-anchor="middle" font-size="10" fill="#dc2626" font-style="italic">prod</text>

  <!-- ═══════════════════════════════════════════════════════════════ -->
  <!-- ROW 2: CI/CD PIPELINE -->
  <!-- ═══════════════════════════════════════════════════════════════ -->
  <g filter="url(#shadowLg)">
    <rect x="60" y="175" width="1380" height="90" rx="10" fill="#fff" stroke="#818cf8" stroke-width="1.5" opacity="0.95"/>
    <rect x="60" y="175" width="1380" height="28" rx="10" fill="url(#gradPipeline)"/>
    <rect x="60" y="193" width="1380" height="10" fill="url(#gradPipeline)"/>
    <text x="750" y="194" text-anchor="middle" font-size="14" font-weight="700" fill="#fff" letter-spacing="1">CI/CD PIPELINE — GITHUB ACTIONS</text>
  </g>

  <!-- GitHub icon (emoji) -->
  <text x="120" y="237" text-anchor="middle" font-size="22">🔄</text>
  <text x="120" y="255" text-anchor="middle" font-size="10" fill="#3730a3" font-weight="600">GitHub Actions</text>

  <!-- Pipeline Runner VM -->
  <rect x="230" y="210" width="140" height="50" rx="8" fill="#eef2ff" stroke="#818cf8" stroke-width="1"/>
  <g transform="translate(278, 214) scale(1.8)">
    <rect x="-0.12" y="0.21" width="18" height="12" rx="0.6" fill="url(#runner-grad1)"/>
    <polygon points="11.88 4.46 11.88 7.95 8.88 9.71 8.88 6.21 11.88 4.46" fill="#50e6ff"/>
    <polygon points="11.88 4.46 8.88 6.22 5.88 4.46 8.88 2.71 11.88 4.46" fill="#c3f1ff"/>
    <polygon points="8.88 6.22 8.88 9.71 5.88 7.95 5.88 4.46 8.88 6.22" fill="#9cebff"/>
    <path d="M12.49,15.84c-1.78-.28-1.85-1.56-1.85-3.63H7.11c0,2.07-.06,3.35-1.84,3.63a1,1,0,0,0-.89,1h9A1,1,0,0,0,12.49,15.84Z" fill="url(#runner-grad2)"/>
  </g>
  <text x="300" y="256" text-anchor="middle" font-size="10" fill="#3730a3" font-weight="600">Self-Hosted Runners</text>
  <text x="300" y="210" text-anchor="middle" font-size="10" fill="#64748b">(Private VNet)</text>

  <!-- Build/Push arrows -->
  <line x1="160" y1="237" x2="225" y2="237" stroke="#94a3b8" stroke-width="2" marker-end="url(#arrow)"/>
  <text x="193" y="230" text-anchor="middle" font-size="10" fill="#64748b" font-style="italic">trigger</text>

  <!-- Deploy arrows from runners to each env -->
  <line x1="375" y1="232" x2="575" y2="350" stroke="#059669" stroke-width="1.5" marker-end="url(#arrowGreen)"/>
  <line x1="375" y1="237" x2="870" y2="350" stroke="#d97706" stroke-width="1.5" stroke-dasharray="5,4"/>
  <line x1="375" y1="242" x2="1170" y2="350" stroke="#dc2626" stroke-width="1.5" stroke-dasharray="5,4"/>
  <text x="460" y="288" text-anchor="start" font-size="10" fill="#059669" font-style="italic">deploy</text>
  <text x="620" y="288" text-anchor="start" font-size="10" fill="#d97706" font-style="italic">promote</text>
  <text x="800" y="288" text-anchor="start" font-size="10" fill="#dc2626" font-style="italic">promote</text>

  <!-- Push to ACR arrow -->
  <line x1="375" y1="225" x2="500" y2="225" stroke="#0078d4" stroke-width="1.5" marker-end="url(#arrowBlue)"/>
  <text x="438" y="218" text-anchor="middle" font-size="10" fill="#0078d4" font-style="italic">push image</text>

  <!-- ACR (shared) -->
  <rect x="510" y="208" width="145" height="50" rx="8" fill="#eef2ff" stroke="#818cf8" stroke-width="1"/>
  <g transform="translate(550, 212) scale(1.8)">
    <path d="M7.43,8.178l2.589-1.573,7.255,2.731A3.664,3.664,0,0,0,16.23,7.49l-.01-.05A4.194,4.194,0,0,0,14,6.32a4.91,4.91,0,0,0-5.1-4.7A5.071,5.071,0,0,0,4.06,4.91,4.621,4.621,0,0,0,0,9.39a4.73,4.73,0,0,0,4.89,4.54H7.43Z" fill="url(#acr-grad1)"/>
    <polygon points="10.07 7.159 10.08 11.439 17.99 13.119 17.99 10.139 10.07 7.159" fill="#767676"/>
    <polyline points="10.07 7.159 7.93 8.459 7.93 12.439 10.08 11.439" fill="#999"/>
    <path d="M8.66,11.369l-.36.21V8.749l.36-.19Zm.71-3.22L9,8.389v2.75l.37-.2Z" fill="#b3b3b3"/>
    <polygon points="17.99 13.119 15.83 13.859 7.93 12.439 10.08 11.439 17.99 13.119" fill="url(#acr-grad2)"/>
    <polygon points="17.99 16.169 10.04 17.679 10.08 12.089 17.99 13.559 17.99 16.169" fill="#767676"/>
    <path d="M7.93,16.4v-3.26l2.16-1v5.6Z" fill="#999"/>
  </g>
  <text x="583" y="255" text-anchor="middle" font-size="10" fill="#3730a3" font-weight="600">Container Registry</text>
  <text x="583" y="208" text-anchor="middle" font-size="10" fill="#64748b">(Shared)</text>



  <!-- ═══════════════════════════════════════════════════════════════ -->
  <!-- ROW 3: ENVIRONMENT COLUMNS (Dev / Stage / Prod)              -->
  <!-- ═══════════════════════════════════════════════════════════════ -->

  <!-- ============ DEV SUBSCRIPTION ============ -->
  <g filter="url(#shadowLg)">
    <rect x="60" y="290" width="420" height="510" rx="10" fill="#fff" stroke="#10b981" stroke-width="2" opacity="0.95"/>
    <!-- Subscription header -->
    <rect x="60" y="290" width="420" height="30" rx="10" fill="url(#gradDev)"/>
    <rect x="60" y="310" width="420" height="10" fill="url(#gradDev)"/>
    <text x="270" y="310" text-anchor="middle" font-size="14" font-weight="700" fill="#fff" letter-spacing="1">DEV SUBSCRIPTION</text>
  </g>

  <!-- Subscription icon -->
  <g transform="translate(75, 296) scale(1.2)">
    <path d="M13.56,7.19a2.07,2.07,0,0,0,0-2.93h0L10,.69a2.06,2.06,0,0,0-2.92,0h0L3.52,4.26a2.09,2.09,0,0,0,0,2.93l3,3a.61.61,0,0,1,.17.41v5.52a.7.7,0,0,0,.2.5l1.35,1.35a.45.45,0,0,0,.66,0l1.31-1.31h0l.77-.77a.26.26,0,0,0,0-.38l-.55-.56a.29.29,0,0,1,0-.42l.55-.56a.26.26,0,0,0,0-.38L10.4,13a.28.28,0,0,1,0-.41L11,12a.26.26,0,0,0,0-.38l-.77-.78v-.28Zm-5-5.64A1.18,1.18,0,1,1,7.37,2.73,1.17,1.17,0,0,1,8.54,1.55Z" fill="url(#sub-grad)"/>
  </g>

  <!-- AML Workspace box -->
  <rect x="80" y="340" width="380" height="80" rx="8" fill="#ecfdf5" stroke="#10b981" stroke-width="1"/>
  <g transform="translate(245, 348) scale(2)">
    <path d="M15.8,17.5H2.2L1.1,13.4H16.9Z" fill="#198ab3"/>
    <polygon points="6.9 0.5 6.9 6.9 1.1 13.4 2.2 17.5 11.1 6.9 11.1 0.5 6.9 0.5" fill="url(#ml-grad)"/>
    <path d="M15.8,17.5,9.6,11.1l2.6-3,4.7,5.3Z" fill="#32bedd"/>
  </g>
  <text x="270" y="398" text-anchor="middle" font-size="12" font-weight="600" fill="#065f46">AML Workspace (Dev)</text>
  <text x="270" y="412" text-anchor="middle" font-size="10" fill="#065f46">Project-level Resources</text>

  <!-- VNet container (Dev) -->
  <rect x="85" y="435" width="370" height="330" rx="8" fill="#f0fdf4" stroke="#86efac" stroke-width="1.2" stroke-dasharray="6,3"/>
  <g transform="translate(92, 440) scale(1.3)">
    <circle cx="12.74" cy="8.99" r="1.16" fill="url(#vn-grad1)"/>
    <circle cx="9.04" cy="9" r="1.16" fill="url(#vn-grad2)"/>
    <circle cx="5.34" cy="9" r="1.16" fill="url(#vn-grad3)"/>
    <path d="M2.61,7.28h.94a.3.3,0,0,1,.3.3v6.94a.6.6,0,0,1-.6.6H2.31a0,0,0,0,1,0,0V7.58a.3.3,0,0,1,.3-.3Z" transform="translate(13.18 16.93) rotate(134.92)" fill="#50e6ff"/>
    <path d="M2.56,2.91H3.5a.3.3,0,0,1,.3.3v7.43a0,0,0,0,1,0,0H2.86a.6.6,0,0,1-.6-.6V3.21a.3.3,0,0,1,.3-.3Z" transform="translate(5.66 -0.16) rotate(44.92)" fill="#1490df"/>
    <path d="M14.15,7.28h.94a.6.6,0,0,1,.6.6v6.94a.3.3,0,0,1-.3.3h-.94a.3.3,0,0,1-.3-.3V7.28a0,0,0,0,1,0,0Z" transform="translate(12.32 -7.28) rotate(45.08)" fill="#50e6ff"/>
    <path d="M14.81,2.91h.94a0,0,0,0,1,0,0v7.43a.3.3,0,0,1-.3.3H14.5a.3.3,0,0,1-.3-.3V3.51a.6.6,0,0,1,.6-.6Z" transform="translate(30.36 0.99) rotate(135.08)" fill="#1490df"/>
  </g>
  <text x="125" y="453" text-anchor="start" font-size="11" font-weight="600" fill="#065f46">VNet (Dev)</text>

  <!-- Managed Endpoint: Blue -->
  <rect x="100" y="470" width="165" height="65" rx="8" fill="#dbeafe" stroke="#60a5fa" stroke-width="1"/>
  <rect x="100" y="470" width="165" height="18" rx="8" fill="#2563eb"/>
  <rect x="100" y="482" width="165" height="6" fill="#2563eb"/>
  <text x="183" y="484" text-anchor="middle" font-size="10" font-weight="700" fill="#fff">BLUE DEPLOYMENT</text>
  <text x="183" y="510" text-anchor="middle" font-size="10" fill="#1e3a8a">Model v1 (stable)</text>
  <text x="183" y="525" text-anchor="middle" font-size="10" fill="#1e3a8a">90% traffic</text>

  <!-- Managed Endpoint: Green -->
  <rect x="280" y="470" width="165" height="65" rx="8" fill="#dcfce7" stroke="#4ade80" stroke-width="1"/>
  <rect x="280" y="470" width="165" height="18" rx="8" fill="#16a34a"/>
  <rect x="280" y="482" width="165" height="6" fill="#16a34a"/>
  <text x="363" y="484" text-anchor="middle" font-size="10" font-weight="700" fill="#fff">GREEN DEPLOYMENT</text>
  <text x="363" y="510" text-anchor="middle" font-size="10" fill="#14532d">Model v2 (canary)</text>
  <text x="363" y="525" text-anchor="middle" font-size="10" fill="#14532d">10% traffic</text>

  <!-- GPU VM Training Cluster + Training Data -->
  <rect x="100" y="545" width="345" height="125" rx="8" fill="#eef2ff" stroke="#818cf8" stroke-width="1.5"/>
  <text x="270" y="562" text-anchor="middle" font-size="12" font-weight="700" fill="#3730a3">GPU VM Training Cluster</text>
  <text x="270" y="576" text-anchor="middle" font-size="10" fill="#3730a3">NC/ND-series (Training &amp; Inference)</text>
  <g transform="translate(118, 555) scale(1.8)">
    <rect x="-0.12" y="0.21" width="18" height="12" rx="0.6" fill="url(#vm-grad1)"/>
    <polygon points="11.88 4.46 11.88 7.95 8.88 9.71 8.88 6.21 11.88 4.46" fill="#50e6ff"/>
    <polygon points="11.88 4.46 8.88 6.22 5.88 4.46 8.88 2.71 11.88 4.46" fill="#c3f1ff"/>
    <polygon points="8.88 6.22 8.88 9.71 5.88 7.95 5.88 4.46 8.88 6.22" fill="#9cebff"/>
    <path d="M12.49,15.84c-1.78-.28-1.85-1.56-1.85-3.63H7.11c0,2.07-.06,3.35-1.84,3.63a1,1,0,0,0-.89,1h9A1,1,0,0,0,12.49,15.84Z" fill="url(#vm-grad2)"/>
  </g>
  <!-- Training Data blob inside training cluster -->
  <rect x="115" y="590" width="155" height="45" rx="6" fill="#f0f9ff" stroke="#0284c7" stroke-width="1"/>
  <g transform="translate(125, 594) scale(1.3)">
    <path d="M.5,5.79h17a0,0,0,0,1,0,0v9.48a.57.57,0,0,1-.57.57H1.07a.57.57,0,0,1-.57-.57V5.79A0,0,0,0,1,.5,5.79Z" fill="url(#stor-grad)"/>
    <path d="M1.07,2.17H16.93a.57.57,0,0,1,.57.57V5.79a0,0,0,0,1,0,0H.5a0,0,0,0,1,0,0V2.73A.57.57,0,0,1,1.07,2.17Z" fill="#37c2b1"/>
  </g>
  <text x="218" y="611" text-anchor="middle" font-size="10" fill="#0369a1" font-weight="600">Training Data (Blob)</text>
  <text x="218" y="625" text-anchor="middle" font-size="10" fill="#0369a1">Datasets &amp; Pre-trained Models</text>
  <!-- Pre-trained models blob -->
  <rect x="280" y="590" width="155" height="45" rx="6" fill="#f0f9ff" stroke="#0284c7" stroke-width="1"/>
  <text x="358" y="611" text-anchor="middle" font-size="10" fill="#0369a1" font-weight="600">Pre-trained Models</text>
  <text x="358" y="625" text-anchor="middle" font-size="10" fill="#0369a1">(Blob Storage)</text>

  <!-- Inference Data (Dev) -->
  <rect x="100" y="685" width="345" height="40" rx="8" fill="#fef2f2" stroke="#f87171" stroke-width="1"/>
  <text x="270" y="710" text-anchor="middle" font-size="10" fill="#991b1b" font-weight="600">Inference Data (Blob)</text>

  <!-- Private Endpoint indicator -->
  <rect x="100" y="740" width="345" height="25" rx="6" fill="#f8fafc" stroke="#94a3b8" stroke-width="1" stroke-dasharray="4,3"/>
  <g transform="translate(110, 743) scale(1.0)">
    <path d="M7.85,13.342a1.738,1.738,0,1,0,2.436-2.479,1.715,1.715,0,0,0-.626-.389V3.009H8.548v7.444a1.729,1.729,0,0,0-.7,2.891Z" fill="#b3b3b3"/>
    <circle cx="9.084" cy="2.209" r="1.738" fill="url(#pe-grad1)"/>
    <circle cx="9.065" cy="12.106" r="1.738" fill="url(#pe-grad2)"/>
  </g>
  <text x="140" y="757" text-anchor="start" font-size="10" fill="#334155" font-weight="600">Private Endpoints (all resources)</text>


  <!-- ============ STAGE SUBSCRIPTION ============ -->
  <g filter="url(#shadowLg)">
    <rect x="500" y="290" width="420" height="450" rx="10" fill="#fff" stroke="#fbbf24" stroke-width="2" opacity="0.95"/>
    <rect x="500" y="290" width="420" height="30" rx="10" fill="url(#gradStage)"/>
    <rect x="500" y="310" width="420" height="10" fill="url(#gradStage)"/>
    <text x="710" y="310" text-anchor="middle" font-size="14" font-weight="700" fill="#fff" letter-spacing="1">STAGE SUBSCRIPTION</text>
  </g>

  <!-- Subscription icon -->
  <g transform="translate(515, 296) scale(1.2)">
    <path d="M13.56,7.19a2.07,2.07,0,0,0,0-2.93h0L10,.69a2.06,2.06,0,0,0-2.92,0h0L3.52,4.26a2.09,2.09,0,0,0,0,2.93l3,3a.61.61,0,0,1,.17.41v5.52a.7.7,0,0,0,.2.5l1.35,1.35a.45.45,0,0,0,.66,0l1.31-1.31h0l.77-.77a.26.26,0,0,0,0-.38l-.55-.56a.29.29,0,0,1,0-.42l.55-.56a.26.26,0,0,0,0-.38L10.4,13a.28.28,0,0,1,0-.41L11,12a.26.26,0,0,0,0-.38l-.77-.78v-.28Zm-5-5.64A1.18,1.18,0,1,1,7.37,2.73,1.17,1.17,0,0,1,8.54,1.55Z" fill="url(#sub2-grad)"/>
  </g>

  <!-- AML Workspace box (Stage) -->
  <rect x="520" y="340" width="380" height="80" rx="8" fill="#fffbeb" stroke="#fbbf24" stroke-width="1"/>
  <g transform="translate(685, 348) scale(2)">
    <path d="M15.8,17.5H2.2L1.1,13.4H16.9Z" fill="#198ab3"/>
    <polygon points="6.9 0.5 6.9 6.9 1.1 13.4 2.2 17.5 11.1 6.9 11.1 0.5 6.9 0.5" fill="url(#ml2-grad)"/>
    <path d="M15.8,17.5,9.6,11.1l2.6-3,4.7,5.3Z" fill="#32bedd"/>
  </g>
  <text x="710" y="398" text-anchor="middle" font-size="12" font-weight="600" fill="#78350f">AML Workspace (Stage)</text>
  <text x="710" y="412" text-anchor="middle" font-size="10" fill="#78350f">Project-level Resources</text>

  <!-- VNet container (Stage) -->
  <rect x="525" y="435" width="370" height="250" rx="8" fill="#fefce8" stroke="#fde68a" stroke-width="1.2" stroke-dasharray="6,3"/>
  <text x="555" y="453" text-anchor="start" font-size="11" font-weight="600" fill="#78350f">VNet (Stage)</text>

  <!-- Managed Endpoint: Blue (Stage) -->
  <rect x="540" y="470" width="165" height="65" rx="8" fill="#dbeafe" stroke="#60a5fa" stroke-width="1"/>
  <rect x="540" y="470" width="165" height="18" rx="8" fill="#2563eb"/>
  <rect x="540" y="482" width="165" height="6" fill="#2563eb"/>
  <text x="623" y="484" text-anchor="middle" font-size="10" font-weight="700" fill="#fff">BLUE DEPLOYMENT</text>
  <text x="623" y="510" text-anchor="middle" font-size="10" fill="#1e3a8a">Model v1 (stable)</text>
  <text x="623" y="525" text-anchor="middle" font-size="10" fill="#1e3a8a">100% traffic</text>

  <!-- Managed Endpoint: Green (Stage) -->
  <rect x="720" y="470" width="165" height="65" rx="8" fill="#dcfce7" stroke="#4ade80" stroke-width="1"/>
  <rect x="720" y="470" width="165" height="18" rx="8" fill="#16a34a"/>
  <rect x="720" y="482" width="165" height="6" fill="#16a34a"/>
  <text x="803" y="484" text-anchor="middle" font-size="10" font-weight="700" fill="#fff">GREEN DEPLOYMENT</text>
  <text x="803" y="510" text-anchor="middle" font-size="10" fill="#14532d">Model v2 (staging)</text>
  <text x="803" y="525" text-anchor="middle" font-size="10" fill="#14532d">0% traffic</text>

  <!-- GPU VMs (Stage) -->
  <rect x="540" y="550" width="345" height="55" rx="8" fill="#eef2ff" stroke="#818cf8" stroke-width="1"/>
  <g transform="translate(558, 555) scale(1.8)">
    <rect x="-0.12" y="0.21" width="18" height="12" rx="0.6" fill="url(#vm2-grad1)"/>
    <polygon points="11.88 4.46 11.88 7.95 8.88 9.71 8.88 6.21 11.88 4.46" fill="#50e6ff"/>
    <polygon points="11.88 4.46 8.88 6.22 5.88 4.46 8.88 2.71 11.88 4.46" fill="#c3f1ff"/>
    <polygon points="8.88 6.22 8.88 9.71 5.88 7.95 5.88 4.46 8.88 6.22" fill="#9cebff"/>
    <path d="M12.49,15.84c-1.78-.28-1.85-1.56-1.85-3.63H7.11c0,2.07-.06,3.35-1.84,3.63a1,1,0,0,0-.89,1h9A1,1,0,0,0,12.49,15.84Z" fill="url(#vm2-grad2)"/>
  </g>
  <text x="710" y="575" text-anchor="middle" font-size="12" font-weight="600" fill="#3730a3">GPU VM Compute Cluster</text>
  <text x="710" y="593" text-anchor="middle" font-size="10" fill="#3730a3">NC/ND-series (Training &amp; Inference)</text>

  <!-- Data blobs (Stage) - inference only -->
  <rect x="540" y="620" width="345" height="45" rx="8" fill="#fef2f2" stroke="#f87171" stroke-width="1"/>
  <text x="710" y="648" text-anchor="middle" font-size="10" fill="#991b1b" font-weight="600">Inference Data (Blob)</text>


  <!-- ============ PROD SUBSCRIPTION ============ -->
  <g filter="url(#shadowLg)">
    <rect x="940" y="290" width="500" height="450" rx="10" fill="#fff" stroke="#f87171" stroke-width="2" opacity="0.95"/>
    <rect x="940" y="290" width="500" height="30" rx="10" fill="url(#gradProd)"/>
    <rect x="940" y="310" width="500" height="10" fill="url(#gradProd)"/>
    <text x="1190" y="310" text-anchor="middle" font-size="14" font-weight="700" fill="#fff" letter-spacing="1">PROD SUBSCRIPTION</text>
  </g>

  <!-- Subscription icon -->
  <g transform="translate(955, 296) scale(1.2)">
    <path d="M13.56,7.19a2.07,2.07,0,0,0,0-2.93h0L10,.69a2.06,2.06,0,0,0-2.92,0h0L3.52,4.26a2.09,2.09,0,0,0,0,2.93l3,3a.61.61,0,0,1,.17.41v5.52a.7.7,0,0,0,.2.5l1.35,1.35a.45.45,0,0,0,.66,0l1.31-1.31h0l.77-.77a.26.26,0,0,0,0-.38l-.55-.56a.29.29,0,0,1,0-.42l.55-.56a.26.26,0,0,0,0-.38L10.4,13a.28.28,0,0,1,0-.41L11,12a.26.26,0,0,0,0-.38l-.77-.78v-.28Zm-5-5.64A1.18,1.18,0,1,1,7.37,2.73,1.17,1.17,0,0,1,8.54,1.55Z" fill="url(#sub3-grad)"/>
  </g>

  <!-- AML Workspace box (Prod) -->
  <rect x="960" y="340" width="460" height="80" rx="8" fill="#fef2f2" stroke="#f87171" stroke-width="1"/>
  <g transform="translate(1165, 348) scale(2)">
    <path d="M15.8,17.5H2.2L1.1,13.4H16.9Z" fill="#198ab3"/>
    <polygon points="6.9 0.5 6.9 6.9 1.1 13.4 2.2 17.5 11.1 6.9 11.1 0.5 6.9 0.5" fill="url(#ml3-grad)"/>
    <path d="M15.8,17.5,9.6,11.1l2.6-3,4.7,5.3Z" fill="#32bedd"/>
  </g>
  <text x="1190" y="398" text-anchor="middle" font-size="12" font-weight="600" fill="#991b1b">AML Workspace (Prod)</text>
  <text x="1190" y="412" text-anchor="middle" font-size="10" fill="#991b1b">Project-level Resources</text>

  <!-- VNet container (Prod) - wider -->
  <rect x="965" y="435" width="450" height="250" rx="8" fill="#fef2f2" stroke="#fca5a5" stroke-width="1.2" stroke-dasharray="6,3"/>
  <text x="995" y="453" text-anchor="start" font-size="11" font-weight="600" fill="#991b1b">VNet (Prod)</text>

  <!-- Managed Endpoint: Blue (Prod) - wider -->
  <rect x="980" y="470" width="200" height="65" rx="8" fill="#dbeafe" stroke="#60a5fa" stroke-width="1"/>
  <rect x="980" y="470" width="200" height="18" rx="8" fill="#2563eb"/>
  <rect x="980" y="482" width="200" height="6" fill="#2563eb"/>
  <text x="1080" y="484" text-anchor="middle" font-size="10" font-weight="700" fill="#fff">BLUE DEPLOYMENT</text>
  <text x="1080" y="510" text-anchor="middle" font-size="10" fill="#1e3a8a">Model v1 (production)</text>
  <text x="1080" y="525" text-anchor="middle" font-size="10" fill="#1e3a8a">95% traffic</text>

  <!-- Managed Endpoint: Green (Prod) -->
  <rect x="1200" y="470" width="200" height="65" rx="8" fill="#dcfce7" stroke="#4ade80" stroke-width="1"/>
  <rect x="1200" y="470" width="200" height="18" rx="8" fill="#16a34a"/>
  <rect x="1200" y="482" width="200" height="6" fill="#16a34a"/>
  <text x="1300" y="484" text-anchor="middle" font-size="10" font-weight="700" fill="#fff">GREEN DEPLOYMENT</text>
  <text x="1300" y="510" text-anchor="middle" font-size="10" fill="#14532d">Model v2 (canary)</text>
  <text x="1300" y="525" text-anchor="middle" font-size="10" fill="#14532d">5% traffic</text>

  <!-- GPU VMs (Prod) -->
  <rect x="980" y="550" width="420" height="55" rx="8" fill="#eef2ff" stroke="#818cf8" stroke-width="1"/>
  <g transform="translate(998, 555) scale(1.8)">
    <rect x="-0.12" y="0.21" width="18" height="12" rx="0.6" fill="url(#vm3-grad1)"/>
    <polygon points="11.88 4.46 11.88 7.95 8.88 9.71 8.88 6.21 11.88 4.46" fill="#50e6ff"/>
    <polygon points="11.88 4.46 8.88 6.22 5.88 4.46 8.88 2.71 11.88 4.46" fill="#c3f1ff"/>
    <polygon points="8.88 6.22 8.88 9.71 5.88 7.95 5.88 4.46 8.88 6.22" fill="#9cebff"/>
    <path d="M12.49,15.84c-1.78-.28-1.85-1.56-1.85-3.63H7.11c0,2.07-.06,3.35-1.84,3.63a1,1,0,0,0-.89,1h9A1,1,0,0,0,12.49,15.84Z" fill="url(#vm3-grad2)"/>
  </g>
  <text x="1190" y="575" text-anchor="middle" font-size="12" font-weight="600" fill="#3730a3">GPU VM Compute Cluster (HA)</text>
  <text x="1190" y="593" text-anchor="middle" font-size="10" fill="#3730a3">NC/ND-series — Multi-node, Auto-scale</text>

  <!-- Data blobs (Prod) - inference only -->
  <rect x="980" y="620" width="420" height="45" rx="8" fill="#fef2f2" stroke="#f87171" stroke-width="1"/>
  <text x="1190" y="648" text-anchor="middle" font-size="10" fill="#991b1b" font-weight="600">Inference Data (Blob)</text>

  <!-- Managed Endpoint label for Prod -->
  <text x="1190" y="465" text-anchor="middle" font-size="10" fill="#991b1b" font-weight="600">Managed Online Endpoints</text>


  <!-- Managed Endpoint labels for Dev and Stage -->
  <text x="270" y="465" text-anchor="middle" font-size="10" fill="#065f46" font-weight="600">Managed Online Endpoints</text>
  <text x="710" y="465" text-anchor="middle" font-size="10" fill="#78350f" font-weight="600">Managed Online Endpoints</text>

  <!-- ═══════════════════════════════════════════════════════════════ -->
  <!-- ACR pull arrows from ACR to each environment                 -->
  <!-- ═══════════════════════════════════════════════════════════════ -->
  <line x1="583" y1="260" x2="270" y2="335" stroke="#0078d4" stroke-width="1.2" stroke-dasharray="4,3" marker-end="url(#arrowBlue)"/>
  <line x1="583" y1="260" x2="710" y2="335" stroke="#0078d4" stroke-width="1.2" stroke-dasharray="4,3" marker-end="url(#arrowBlue)"/>
  <line x1="620" y1="260" x2="1190" y2="335" stroke="#0078d4" stroke-width="1.2" stroke-dasharray="4,3" marker-end="url(#arrowBlue)"/>
  <text x="420" y="300" text-anchor="middle" font-size="10" fill="#0078d4" font-style="italic">pull image</text>

  <!-- ═══════════════════════════════════════════════════════════════ -->
  <!-- FLOW ANNOTATIONS                                              -->
  <!-- ═══════════════════════════════════════════════════════════════ -->

  <!-- Numbered steps -->
  <g transform="translate(60, 815)">
    <circle cx="15" cy="12" r="12" fill="#4f46e5"/>
    <text x="15" y="16" text-anchor="middle" font-size="11" font-weight="bold" fill="#fff">1</text>
    <text x="35" y="16" text-anchor="start" font-size="10" fill="#334155">GitHub Actions triggers on code push / PR merge</text>
  </g>
  <g transform="translate(60, 840)">
    <circle cx="15" cy="12" r="12" fill="#4f46e5"/>
    <text x="15" y="16" text-anchor="middle" font-size="11" font-weight="bold" fill="#fff">2</text>
    <text x="35" y="16" text-anchor="start" font-size="10" fill="#334155">Self-hosted runners (in private VNet) build container &amp; push to shared ACR</text>
  </g>
  <g transform="translate(730, 815)">
    <circle cx="15" cy="12" r="12" fill="#4f46e5"/>
    <text x="15" y="16" text-anchor="middle" font-size="11" font-weight="bold" fill="#fff">3</text>
    <text x="35" y="16" text-anchor="start" font-size="10" fill="#334155">Deploy to Dev green → validate → switch traffic → promote to Stage</text>
  </g>
  <g transform="translate(730, 840)">
    <circle cx="15" cy="12" r="12" fill="#4f46e5"/>
    <text x="15" y="16" text-anchor="middle" font-size="11" font-weight="bold" fill="#fff">4</text>
    <text x="35" y="16" text-anchor="start" font-size="10" fill="#334155">Stage validation → promote to Prod green (5% canary) → gradual traffic shift</text>
  </g>
  <g transform="translate(60, 865)">
    <circle cx="15" cy="12" r="12" fill="#4f46e5"/>
    <text x="15" y="16" text-anchor="middle" font-size="11" font-weight="bold" fill="#fff">5</text>
    <text x="35" y="16" text-anchor="start" font-size="10" fill="#334155">DNS routing via Front Door directs public traffic to managed endpoints per environment</text>
  </g>
  <g transform="translate(730, 865)">
    <circle cx="15" cy="12" r="12" fill="#0ea5e9"/>
    <text x="15" y="16" text-anchor="middle" font-size="11" font-weight="bold" fill="#fff">6</text>
    <text x="35" y="16" text-anchor="start" font-size="10" fill="#334155">Training data &amp; pre-trained models reside in Dev; Stage/Prod are inference-only</text>
  </g>

  <!-- ═══════════════════════════════════════════════════════════════ -->
  <!-- LEGEND                                                        -->
  <!-- ═══════════════════════════════════════════════════════════════ -->
  <g transform="translate(60, 905)" font-size="10">
    <text x="0" y="12" font-weight="700" fill="#475569" font-size="10">LEGEND:</text>

    <rect x="70" y="2" width="14" height="14" rx="3" fill="#ecfdf5" stroke="#10b981" stroke-width="1"/>
    <text x="90" y="13" fill="#475569">Dev</text>

    <rect x="130" y="2" width="14" height="14" rx="3" fill="#fffbeb" stroke="#fbbf24" stroke-width="1"/>
    <text x="150" y="13" fill="#475569">Stage</text>

    <rect x="200" y="2" width="14" height="14" rx="3" fill="#fef2f2" stroke="#f87171" stroke-width="1"/>
    <text x="220" y="13" fill="#475569">Prod</text>

    <rect x="270" y="2" width="14" height="14" rx="3" fill="#dbeafe" stroke="#60a5fa" stroke-width="1"/>
    <text x="290" y="13" fill="#475569">Blue (stable)</text>

    <rect x="380" y="2" width="14" height="14" rx="3" fill="#dcfce7" stroke="#4ade80" stroke-width="1"/>
    <text x="400" y="13" fill="#475569">Green (canary)</text>

    <rect x="500" y="2" width="14" height="14" rx="3" fill="#eef2ff" stroke="#818cf8" stroke-width="1"/>
    <text x="520" y="13" fill="#475569">CI/CD / Compute</text>

    <rect x="630" y="2" width="14" height="14" rx="3" fill="#f0f9ff" stroke="#0284c7" stroke-width="1"/>
    <text x="650" y="13" fill="#475569">Data / Storage</text>

    <rect x="755" y="2" width="14" height="14" rx="3" fill="none" stroke="#86efac" stroke-width="1.2" stroke-dasharray="4,2"/>
    <text x="775" y="13" fill="#475569">VNet Boundary</text>

    <rect x="875" y="2" width="14" height="14" rx="3" fill="#f5f3ff" stroke="#8b5cf6" stroke-width="1"/>
    <text x="895" y="13" fill="#475569">Ingress</text>

    <line x1="955" y1="10" x2="995" y2="10" stroke="#94a3b8" stroke-width="2" marker-end="url(#arrow)"/>
    <text x="1005" y="13" fill="#475569">Data Flow</text>
  </g>
</svg>
